<svg width="24" height="24" viewBox="0 0 24 24" fill="none" xmlns="http://www.w3.org/2000/svg">
<path d="M2 12C2 10.8954 2.89543 10 4 10H14C15.1046 10 16 10.8954 16 12V14C16 15.1046 15.1046 16 14 16H4C2.89543 16 2 15.1046 2 14V12ZM16 12L20 9.5V16.5L16 14V12ZM6 8C6 7.44772 6.44772 7 7 7H12C12.5523 7 13 7.44772 13 8V9H6V8ZM6 17H13V18C13 18.5523 12.5523 19 12 19H7C6.44772 19 6 18.5523 6 18V17ZM17 10.5V11.5H22C22.5523 11.5 23 11.9477 23 12.5V13.5C23 14.0523 22.5523 14.5 22 14.5H17V15.5C17 16.0523 16.5523 16.5 16 16.5H15.5C14.9477 16.5 14.5 16.0523 14.5 15.5V10.5C14.5 9.94772 14.9477 9.5 15.5 9.5H16C16.5523 9.5 17 9.94772 17 10.5Z" fill="#00ff7f"/>
</svg>