<svg width="32" height="32" viewBox="0 0 32 32" xmlns="http://www.w3.org/2000/svg">
  <!-- 背景圆形 -->
  <circle cx="16" cy="16" r="15" fill="#1a1a1a" stroke="#00ff88" stroke-width="1"/>

  <!-- AK-47 枪身轮廓 -->
  <path d="M8 18 L12 18 L12 20 L10 20 L10 22 L8 22 Z" fill="#00ff88"/>
  <path d="M12 18 L14 18 L14 16 L16 16 L16 18 L18 18 L18 20 L16 20 L16 22 L14 22 L14 20 L12 20 Z" fill="#00ff88"/>
  <path d="M18 18 L20 18 L20 16 L22 16 L22 18 L24 18 L24 20 L22 20 L22 22 L20 22 L20 20 L18 20 Z" fill="#00ff88"/>

  <!-- 瞄准镜 -->
  <circle cx="16" cy="12" r="2" fill="none" stroke="#00ff88" stroke-width="1"/>
  <line x1="14" y1="12" x2="12" y2="12" stroke="#00ff88" stroke-width="1"/>
  <line x1="18" y1="12" x2="20" y2="12" stroke="#00ff88" stroke-width="1"/>

  <!-- 扳机 -->
  <path d="M16 22 L16 24 L18 24 L18 26 L16 26 Z" fill="#ff4444"/>

  <!-- 弹夹 -->
  <rect x="6" y="20" width="2" height="8" fill="#666"/>
  <rect x="4" y="24" width="6" height="2" fill="#666"/>
</svg>